<svg
  xmlns="http://www.w3.org/2000/svg"
  width="32"
  height="32"
	viewBox="0 0 512 512"
	preserveAspectRatio="xMidYMid meet"
>
	<g transform="translate(0,512) scale(0.1,-0.1)" fill="none" stroke="none">
		<path
			fill="currentColor" 
			d="M1520 5105 c-219 -49 -413 -243 -464 -464 -8 -34 -17 -65 -19 -68 -3 -2 -34 -11 -68 -19 -112 -26 -205 -79 -294 -169 -92 -92 -136 -167 -165 -281 -37 -145 -20 -281 55 -429 56 -111 145 -221 233 -285 143 -105 409 -240 597 -304 44 -15 87 -29 95 -32 8 -3 -31 -23 -90 -44 -213 -77 -363 -150 -537 -262 -268 -173 -415 -474 -359 -736 49 -231 244 -426 474 -473 l60 -13 16 -65 c46 -188 169 -342 342 -429 152 -77 372 -68 550 21 175 88 293 217 409 444 24 48 45 80 45 71 0 -38 -52 -313 -80 -422 -114 -443 -316 -729 -634 -899 -66 -35 -96 -75 -96 -125 0 -65 58 -122 123 -122 53 0 227 108 355 219 65 57 164 174 226 266 169 253 289 621 341 1045 28 228 21 216 60 121 73 -179 202 -380 299 -467 82 -73 190 -140 278 -172 58 -21 97 -27 189 -30 108 -4 122 -2 200 25 47 16 110 46 141 67 126 83 230 230 267 377 l18 72 72 18 c112 29 205 82 292 169 125 125 179 250 179 415 0 110 -17 190 -61 283 -39 82 -137 210 -202 265 -122 103 -411 256 -626 331 l-124 43 84 28 c281 93 588 263 715 396 155 164 220 322 212 518 -7 168 -57 280 -180 403 -77 76 -188 137 -298 164 l-65 16 -17 71 c-45 184 -164 332 -336 417 -232 115 -514 56 -740 -154 -122 -113 -281 -392 -381 -666 -27 -73 -51 -128 -53 -124 -3 5 -18 47 -33 94 -61 187 -198 456 -305 602 -87 118 -235 224 -383 275 -91 31 -225 39 -317 18z"
		/>
	</g>
	<style>
		path {
			fill: #000;
		}
		@media (prefers-color-scheme: dark) {
		path {
				fill: #fff;
		}
		}
	</style>
</svg>
